<svg width="966" height="256" viewBox="0 0 966 256" fill="none" xmlns="http://www.w3.org/2000/svg">
<path fill-rule="evenodd" clip-rule="evenodd" d="M10.7997 104.133C-6.9692 141.485 -1.7464 187.274 26.4626 219.668L36.8328 230.038C61.0249 251.105 92.6899 259.353 122.732 254.776C125.387 234.261 118.997 212.782 103.569 196.915L102.799 195.993L56.0529 149.339C55.8163 149.099 55.5246 148.867 55.2917 148.625L10.7997 104.133Z" fill="#FE0000"/>
<path fill-rule="evenodd" clip-rule="evenodd" d="M103.567 196.913C118.995 212.782 125.385 234.261 122.73 254.773C132.912 253.223 142.906 250.199 152.361 245.704C162.96 240.663 172.879 233.771 181.622 225.03C183.711 222.94 185.696 220.784 187.574 218.565C189.829 198.791 183.827 178.117 169.329 162.627L105.971 99.3915C105.415 98.8355 104.92 98.2887 104.282 97.7556L56.435 49.9062L55.9977 50.3437C28.977 77.368 28.7386 121.301 55.2897 148.625L102.866 196.203C103.099 196.432 103.331 196.667 103.556 196.902C103.562 196.904 103.565 196.909 103.567 196.913Z" fill="#FE5900"/>
<path fill-rule="evenodd" clip-rule="evenodd" d="M169.208 162.734C183.708 178.226 189.831 198.791 187.576 218.565C193.546 211.52 198.448 203.858 202.282 195.807C220.002 158.581 214.883 112.969 186.929 80.5835L106.345 0L105.91 0.435499C79.2009 27.1461 78.6579 70.3745 104.284 97.7558L167.581 161.052C168.137 161.608 168.678 162.167 169.208 162.734Z" fill="#FF9A00"/>
<path d="M287.219 82.8008L322.359 181.5H339.998L363.369 116.088L386.479 181.5H404.119L439.539 82.8008H418.539L395.096 151.363L371.779 82.8008H356.1L332.17 150.25L309.479 82.8008H287.219ZM703.021 82.8008V181.5H724.721V140.48H770.641V181.5H792.342V82.8008H770.641V122.42H724.721V82.8008H703.021ZM893.018 82.8008V181.5H913.736V171.32C915.311 174.354 917.635 176.913 920.736 178.98C925.03 181.687 929.932 183.039 935.438 183.039C941.411 183.039 946.637 181.592 951.117 178.699C955.691 175.806 959.238 171.653 961.758 166.24C964.278 160.827 965.537 154.434 965.537 147.061C965.537 139.688 964.278 133.34 961.758 128.02C959.238 122.7 955.738 118.592 951.258 115.699C946.778 112.806 941.505 111.359 935.438 111.359C930.025 111.359 925.218 112.666 921.018 115.279C918.038 117.133 915.774 119.407 914.156 122.061V82.8008H893.018ZM566.973 110.939L560.812 111.359C554.559 111.826 549.517 113.6 545.691 116.68C543.078 118.77 541.145 121.54 539.812 124.91V112.76H519.092V181.5H540.652V145.939C540.652 140.992 541.912 137.213 544.432 134.6C547.045 131.987 551.012 130.447 556.332 129.98L568.232 128.721L566.973 110.939ZM471.682 111.359C468.229 111.359 464.589 111.733 460.762 112.48C456.935 113.133 453.248 114.113 449.701 115.42C446.248 116.633 443.31 118.08 440.883 119.76L446.621 133.9C450.728 131.567 454.834 129.841 458.941 128.721C463.141 127.508 467.109 126.9 470.842 126.9C475.322 126.9 478.494 127.788 480.361 129.561C482.228 131.241 483.162 134.133 483.162 138.24V140.619H478.121C468.414 140.619 460.622 141.273 454.742 142.58C448.862 143.793 444.615 145.894 442.002 148.881C439.389 151.774 438.082 155.739 438.082 160.779C438.082 164.979 439.201 168.759 441.441 172.119C443.681 175.479 446.809 178.14 450.822 180.1C454.835 182.06 459.362 183.039 464.402 183.039C468.042 183.039 471.262 182.434 474.062 181.221C476.863 179.914 479.149 178.14 480.922 175.9C482.101 174.427 482.924 172.726 483.582 170.918V181.5H503.322V140.9C503.322 134.087 502.155 128.533 499.822 124.24C497.489 119.853 493.989 116.633 489.322 114.58C484.749 112.433 478.869 111.359 471.682 111.359ZM618.787 111.359C615.24 111.359 611.973 111.967 608.986 113.18C605.999 114.3 603.434 115.933 601.287 118.08C599.902 119.465 598.783 121.063 597.787 122.758V112.76H577.066V181.5H598.207V143.84C598.207 140.387 598.719 137.493 599.746 135.16C600.773 132.733 602.221 130.912 604.088 129.699C605.955 128.392 608.24 127.74 610.947 127.74C614.4 127.74 616.827 128.814 618.227 130.961C619.72 133.014 620.467 136.327 620.467 140.9V181.5H641.607V143.84C641.607 140.387 642.075 137.493 643.008 135.16C644.035 132.733 645.526 130.912 647.486 129.699C649.446 128.392 651.735 127.74 654.348 127.74C657.801 127.74 660.227 128.814 661.627 130.961C663.12 133.014 663.867 136.327 663.867 140.9V181.5H685.008V140.199C685.008 133.666 684.166 128.3 682.486 124.1C680.806 119.807 678.24 116.633 674.787 114.58C671.427 112.433 667.088 111.359 661.768 111.359C656.261 111.359 651.359 112.761 647.066 115.561C643.564 117.818 640.853 120.832 638.844 124.518C637.313 120.441 635.093 117.275 632.088 115.141C628.541 112.621 624.107 111.359 618.787 111.359ZM810.158 112.76V153.92C810.158 160.36 811.045 165.773 812.818 170.16C814.685 174.453 817.533 177.673 821.359 179.82C825.186 181.967 829.993 183.039 835.779 183.039C841.006 183.039 845.533 181.732 849.359 179.119C852.044 177.286 854.266 174.894 856.078 172.004V181.5H876.658V112.76H855.52V151.119C855.52 154.292 854.913 157.048 853.699 159.381C852.579 161.714 850.993 163.533 848.939 164.84C846.886 166.053 844.506 166.66 841.799 166.66C839.373 166.66 837.366 166.24 835.779 165.4C834.286 164.467 833.167 163.113 832.42 161.34C831.674 159.473 831.299 157.187 831.299 154.48V112.76H810.158ZM929.137 127.18C933.617 127.18 937.257 128.813 940.057 132.08C942.857 135.253 944.258 140.248 944.258 147.061C944.258 153.874 942.857 158.96 940.057 162.32C937.257 165.587 933.617 167.221 929.137 167.221C924.564 167.221 920.876 165.587 918.076 162.32C915.276 158.96 913.877 153.874 913.877 147.061C913.877 140.248 915.276 135.253 918.076 132.08C920.876 128.813 924.564 127.18 929.137 127.18ZM478.262 151.539H483.162V154.34C483.162 157.14 482.555 159.66 481.342 161.9C480.129 164.047 478.45 165.773 476.303 167.08C474.25 168.293 471.869 168.9 469.162 168.9C465.709 168.9 463.049 168.061 461.182 166.381C459.409 164.701 458.521 162.552 458.521 159.939C458.521 158.352 458.849 157.047 459.502 156.02C460.249 154.993 461.415 154.153 463.002 153.5C464.589 152.753 466.594 152.241 469.021 151.961C471.541 151.681 474.622 151.539 478.262 151.539Z" fill="black"/>
</svg>
